REM DIRINDEX 1\4,1\2\5,1\2\6,1\3\7,1\3\8
REM DIRNAME cjc124,folder01,folder02,folder03,folder04,folder05,folder06,folder07
TITLE ""
FILE "034_Day17_Check3_Sentences.mp3" MP3
  TRACK 01 AUDIO
    TITLE "0:"
    INDEX 01 00:00:00
  TRACK 02 AUDIO
    TITLE "4:cjc124_1092"
    INDEX 01 00:00:25
  TRACK 03 AUDIO
    TITLE "0:"
    INDEX 01 00:01:54
  TRACK 04 AUDIO
    TITLE "7:cjc124_1093"
    INDEX 01 00:02:20
  TRACK 05 AUDIO
    TITLE "0:"
    INDEX 01 00:05:20
  TRACK 06 AUDIO
    TITLE "8:cjc124_1094"
    INDEX 01 00:05:38
  TRACK 07 AUDIO
    TITLE "0:"
    INDEX 01 00:07:56
  TRACK 08 AUDIO
    TITLE "7:cjc124_1095"
    INDEX 01 00:08:19
  TRACK 09 AUDIO
    TITLE "0:"
    INDEX 01 00:11:03
  TRACK 10 AUDIO
    TITLE "8:cjc124_1096"
    INDEX 01 00:11:21
  TRACK 11 AUDIO
    TITLE "0:"
    INDEX 01 00:14:21
  TRACK 12 AUDIO
    TITLE "7:cjc124_1097"
    INDEX 01 00:14:58
  TRACK 13 AUDIO
    TITLE "0:"
    INDEX 01 00:18:09
  TRACK 14 AUDIO
    TITLE "8:cjc124_1098"
    INDEX 01 00:18:25
  TRACK 15 AUDIO
    TITLE "0:"
    INDEX 01 00:21:39
  TRACK 16 AUDIO
    TITLE "7:cjc124_1099"
    INDEX 01 00:22:01
  TRACK 17 AUDIO
    TITLE "0:"
    INDEX 01 00:24:63
  TRACK 18 AUDIO
    TITLE "8:cjc124_1100"
    INDEX 01 00:25:05
  TRACK 19 AUDIO
    TITLE "0:"
    INDEX 01 00:28:21
  TRACK 20 AUDIO
    TITLE "7:cjc124_1101"
    INDEX 01 00:28:59
  TRACK 21 AUDIO
    TITLE "0:"
    INDEX 01 00:30:55
  TRACK 22 AUDIO
    TITLE "8:cjc124_1102"
    INDEX 01 00:31:08
  TRACK 23 AUDIO
    TITLE "0:"
    INDEX 01 00:33:38
  TRACK 24 AUDIO
    TITLE "7:cjc124_1103"
    INDEX 01 00:34:02
  TRACK 25 AUDIO
    TITLE "0:"
    INDEX 01 00:37:14
  TRACK 26 AUDIO
    TITLE "8:cjc124_1104"
    INDEX 01 00:37:42
  TRACK 27 AUDIO
    TITLE "0:"
    INDEX 01 00:40:15
  TRACK 28 AUDIO
    TITLE "7:cjc124_1105"
    INDEX 01 00:40:50
  TRACK 29 AUDIO
    TITLE "0:"
    INDEX 01 00:43:74
  TRACK 30 AUDIO
    TITLE "8:cjc124_1106"
    INDEX 01 00:44:16
  TRACK 31 AUDIO
    TITLE "0:"
    INDEX 01 00:46:74
  TRACK 32 AUDIO
    TITLE "7:cjc124_1107"
    INDEX 01 00:47:38
  TRACK 33 AUDIO
    TITLE "0:"
    INDEX 01 00:50:42
  TRACK 34 AUDIO
    TITLE "8:cjc124_1108"
    INDEX 01 00:50:56
  TRACK 35 AUDIO
    TITLE "0:"
    INDEX 01 00:53:74
  TRACK 36 AUDIO
    TITLE "7:cjc124_1109"
    INDEX 01 00:54:36
  TRACK 37 AUDIO
    TITLE "0:"
    INDEX 01 00:57:21
  TRACK 38 AUDIO
    TITLE "8:cjc124_1110"
    INDEX 01 00:57:41
  TRACK 39 AUDIO
    TITLE "0:"
    INDEX 01 01:01:27
  TRACK 40 AUDIO
    TITLE "7:cjc124_1111"
    INDEX 01 01:01:64
  TRACK 41 AUDIO
    TITLE "0:"
    INDEX 01 01:04:23
  TRACK 42 AUDIO
    TITLE "8:cjc124_1112"
    INDEX 01 01:04:39
  TRACK 43 AUDIO
    TITLE "0:"
    INDEX 01 01:06:69
  TRACK 44 AUDIO
    TITLE "7:cjc124_1113"
    INDEX 01 01:07:31
  TRACK 45 AUDIO
    TITLE "0:"
    INDEX 01 01:09:32
  TRACK 46 AUDIO
    TITLE "8:cjc124_1114"
    INDEX 01 01:09:48
  TRACK 47 AUDIO
    TITLE "0:"
    INDEX 01 01:12:26
  TRACK 48 AUDIO
    TITLE "7:cjc124_1115"
    INDEX 01 01:12:64
  TRACK 49 AUDIO
    TITLE "0:"
    INDEX 01 01:15:21
  TRACK 50 AUDIO
    TITLE "8:cjc124_1116"
    INDEX 01 01:15:40
  TRACK 51 AUDIO
    TITLE "0:"
    INDEX 01 01:18:27
  TRACK 52 AUDIO
    TITLE "7:cjc124_1117"
    INDEX 01 01:18:64
  TRACK 53 AUDIO
    TITLE "0:"
    INDEX 01 01:21:45
  TRACK 54 AUDIO
    TITLE "8:cjc124_1118"
    INDEX 01 01:21:65
  TRACK 55 AUDIO
    TITLE "0:"
    INDEX 01 01:24:69
  TRACK 56 AUDIO
    TITLE "7:cjc124_1119"
    INDEX 01 01:25:31
  TRACK 57 AUDIO
    TITLE "0:"
    INDEX 01 01:27:55
  TRACK 58 AUDIO
    TITLE "8:cjc124_1120"
    INDEX 01 01:27:71
  TRACK 59 AUDIO
    TITLE "0:"
    INDEX 01 01:31:26
  TRACK 60 AUDIO
    TITLE "7:cjc124_1121"
    INDEX 01 01:31:65
  TRACK 61 AUDIO
    TITLE "0:"
    INDEX 01 01:35:33
  TRACK 62 AUDIO
    TITLE "8:cjc124_1122"
    INDEX 01 01:35:49
  TRACK 63 AUDIO
    TITLE "0:"
    INDEX 01 01:38:55
  TRACK 64 AUDIO
    TITLE "7:cjc124_1123"
    INDEX 01 01:39:17
  TRACK 65 AUDIO
    TITLE "0:"
    INDEX 01 01:41:14
  TRACK 66 AUDIO
    TITLE "8:cjc124_1124"
    INDEX 01 01:41:38
  TRACK 67 AUDIO
    TITLE "0:"
    INDEX 01 01:43:54
